<?xml version="1.0" encoding="UTF-8" standalone="no"?><!DOCTYPE svg PUBLIC "-//W3C//DTD SVG 1.1//EN" "http://www.w3.org/Graphics/SVG/1.1/DTD/svg11.dtd"><svg width="100%" height="100%" viewBox="0 0 381 165" version="1.1" xmlns="http://www.w3.org/2000/svg" xmlns:xlink="http://www.w3.org/1999/xlink" xml:space="preserve" style="fill-rule:evenodd;clip-rule:evenodd;stroke-linejoin:round;stroke-miterlimit:1.41421;"><path d="M27.243,0l-1.031,0l-15.063,38.781c-1.469,3.844 -3.375,5.188 -5.031,5.563l0,1.281c1.281,-0.125 2.625,-0.188 4.781,-0.188c2.25,0.001 4.938,0.063 7.375,0.188l0,-1.281c-3.656,-0.094 -5.562,-1.063 -5.562,-3.844c0,-1.312 0.406,-3.031 1.281,-5.25l2.625,-6.781l15.437,0l3.938,10.5c0.5,1.281 0.75,2.25 0.75,3c0,1.781 -1.438,2.25 -4.531,2.375l0,1.281c1.812,-0.125 4.875,-0.188 8.187,-0.188c2.438,0.001 5.125,0.063 6.875,0.188l0,-1.281c-1.344,-0.063 -3.156,-0.844 -4.437,-4.094l-15.594,-40.25ZM31.587,27.188l-14.5,0l7.343,-19.094l7.157,19.094Z" style="fill:#fff;fill-rule:nonzero;"/><path d="M77.387,0.313c-1.969,0.125 -5.188,0.187 -8.125,0.187c-3.313,0 -6.407,-0.063 -8.188,-0.187l0,1.281c4.344,0.187 5.188,0.844 5.188,5.5l0,31.75c0,4.656 -0.844,5.312 -5.188,5.5l0,1.281c6.281,-0.188 14.719,-0.188 18.563,-0.188c4.281,0.001 10.312,0.001 14.656,0.188c-0.313,-3.25 -0.438,-6.594 -0.438,-8.188c0,-2.062 0.063,-3.906 0.188,-5.249l-1.469,0c-0.906,8.906 -2.5,11.968 -10.5,11.968l-4.687,0c-4.344,0 -5.188,-0.656 -5.188,-5.312l0,-31.75c0,-4.656 0.844,-5.313 5.188,-5.5l0,-1.281Z" style="fill:#fff;fill-rule:nonzero;"/><path d="M129.499,0l-1.031,0l-15.063,38.781c-1.468,3.844 -3.375,5.188 -5.031,5.563l0,1.281c1.281,-0.125 2.625,-0.188 4.781,-0.188c2.25,0.001 4.938,0.063 7.375,0.188l0,-1.281c-3.656,-0.094 -5.562,-1.063 -5.562,-3.844c0,-1.312 0.406,-3.031 1.281,-5.25l2.625,-6.781l15.438,0l3.937,10.5c0.5,1.281 0.75,2.25 0.75,3c0,1.781 -1.437,2.25 -4.531,2.375l0,1.281c1.812,-0.125 4.875,-0.188 8.187,-0.188c2.438,0.001 5.125,0.063 6.875,0.188l0,-1.281c-1.343,-0.063 -3.156,-0.844 -4.437,-4.094l-15.594,-40.25ZM133.843,27.188l-14.5,0l7.344,-19.094l7.156,19.094Z" style="fill:#fff;fill-rule:nonzero;"/><path d="M184.58,21.563c7.157,-2.188 9.719,-6.594 9.719,-11.125c0,-5.907 -4.531,-10.063 -13.5,-10.063c-1.531,0 -5.625,0.125 -9.656,0.125c-2.813,0 -6.031,-0.062 -7.813,-0.187l0,1.281c4.344,0.187 5.188,0.844 5.188,5.5l0,31.75c0,4.656 -0.844,5.312 -5.188,5.5l0,1.281c1.782,-0.125 4.938,-0.187 7.938,-0.187c5.25,0 9.094,0.187 11,0.187c9.594,0 15.375,-5.125 15.375,-12.406c0,-5.188 -2.938,-10.188 -13.063,-11.531l0,-0.125ZM179.205,1.594c6.407,0 8.969,3.25 8.969,9.531c0,5.563 -1.875,10.438 -9.406,10.438l-4.313,0l0,-14.469c0,-4.407 0.844,-5.5 4.75,-5.5ZM179.268,44.156c-3.969,0 -4.813,-0.843 -4.813,-5.312l0,-16.188l5.375,0c8.125,0 11.407,3.782 11.407,10.281c0,7.188 -3.594,11.219 -11.969,11.219Z" style="fill:#fff;fill-rule:nonzero;"/><path d="M233.568,0l-1.031,0l-15.063,38.781c-1.469,3.844 -3.375,5.188 -5.031,5.563l0,1.281c1.281,-0.125 2.625,-0.188 4.781,-0.188c2.25,0.001 4.938,0.063 7.375,0.188l0,-1.281c-3.656,-0.094 -5.562,-1.063 -5.562,-3.844c0,-1.312 0.406,-3.031 1.281,-5.25l2.625,-6.781l15.437,0l3.938,10.5c0.5,1.281 0.75,2.25 0.75,3c0,1.781 -1.438,2.25 -4.531,2.375l0,1.281c1.812,-0.125 4.875,-0.188 8.187,-0.188c2.438,0.001 5.125,0.063 6.875,0.188l0,-1.281c-1.344,-0.063 -3.156,-0.844 -4.437,-4.094l-15.594,-40.25ZM237.912,27.188l-14.5,0l7.343,-19.094l7.157,19.094Z" style="fill:#fff;fill-rule:nonzero;"/><path d="M317.774,0.313c-2,0.125 -5.187,0.187 -8.125,0.187l-3.031,0l-13.75,36.938l-14.063,-37.125c-1.406,0.124 -3.593,0.187 -5.468,0.187c-2.157,0 -4.532,-0.063 -5.938,-0.187l0,1.281c4.344,0.187 5.188,0.844 5.188,5.5l0,31.094c0,4.687 -0.844,5.968 -5.188,6.156l0,1.281c1.406,-0.125 3.781,-0.188 5.938,-0.188c2.187,0.001 5,0.063 6.531,0.188l0,-1.281c-4.969,-0.188 -5.813,-1.469 -5.813,-6.157l0,-33.781l16.125,41.532l1.032,-0.001l15.406,-41.343l0,34.25c0,4.656 -0.813,5.312 -5.156,5.5l0,1.281c1.781,-0.125 4.843,-0.188 8.187,-0.188c2.938,0.001 6.125,0.063 8.125,0.188l0,-1.281c-4.344,-0.188 -5.187,-0.844 -5.187,-5.5l0,-31.75c0,-4.656 0.843,-5.313 5.187,-5.5l0,-1.281Z" style="fill:#fff;fill-rule:nonzero;"/><path d="M353.949,0l-1.031,0l-15.063,38.781c-1.468,3.844 -3.375,5.188 -5.031,5.563l0,1.281c1.281,-0.125 2.625,-0.188 4.781,-0.188c2.25,0.001 4.938,0.063 7.375,0.188l0,-1.281c-3.656,-0.094 -5.562,-1.063 -5.562,-3.844c0,-1.312 0.406,-3.031 1.281,-5.25l2.625,-6.781l15.438,0l3.937,10.5c0.5,1.281 0.75,2.25 0.75,3c0,1.781 -1.437,2.25 -4.531,2.375l0,1.281c1.812,-0.125 4.875,-0.188 8.187,-0.188c2.438,0.001 5.125,0.063 6.875,0.188l0,-1.281c-1.343,-0.063 -3.156,-0.844 -4.437,-4.094l-15.594,-40.25ZM358.293,27.188l-14.5,0l7.344,-19.094l7.156,19.094Z" style="fill:#fff;fill-rule:nonzero;"/><path d="M8.958,70.458l-0.387,0l-5.648,14.543c-0.551,1.441 -1.266,1.945 -1.887,2.086l0,0.48c0.48,-0.046 0.984,-0.07 1.793,-0.07c0.844,0 1.851,0.024 2.766,0.07l0,-0.48c-1.372,-0.035 -2.086,-0.399 -2.086,-1.441c0,-0.493 0.152,-1.137 0.48,-1.969l0.984,-2.543l5.79,0l1.476,3.937c0.188,0.481 0.281,0.844 0.281,1.125c0,0.668 -0.539,0.844 -1.699,0.891l0,0.48c0.68,-0.046 1.828,-0.07 3.07,-0.07c0.914,0 1.922,0.024 2.579,0.07l0,-0.48c-0.504,-0.024 -1.184,-0.316 -1.665,-1.535l-5.847,-15.094ZM10.587,80.653l-5.438,0l2.754,-7.16l2.684,7.16Z" style="fill:#fff;fill-rule:nonzero;"/><path d="M33.717,86.103c-0.445,0.562 -0.726,0.914 -1.312,0.914c-0.668,0 -0.938,-0.575 -1.231,-1.969l-0.597,-2.449c-0.457,-1.993 -1.231,-2.813 -3.364,-3.164l-0.293,-0.047c3.621,-0.563 4.664,-2.953 4.664,-4.617c0,-2.344 -1.921,-4.172 -5.789,-4.172c-0.574,0 -2.109,0.047 -3.621,0.047c-1.054,0 -2.261,-0.024 -2.929,-0.071l0,0.481c1.628,0.07 1.945,0.316 1.945,2.062l0,11.906c0,1.747 -0.317,1.993 -1.945,2.063l0,0.48c0.668,-0.046 1.828,-0.07 3.07,-0.07c1.101,0 2.308,0.024 3.047,0.07l0,-0.48c-1.629,-0.07 -1.946,-0.316 -1.946,-2.063l0,-5.519l2.286,0c1.898,0 2.25,1.371 2.707,3.41l0.527,2.391c0.457,2.05 1.371,2.601 2.578,2.601c1.289,0 1.887,-0.551 2.566,-1.535l-0.363,-0.269ZM25.198,71.056c2.906,0 3.984,1.465 3.984,3.984c0,2.203 -0.75,3.984 -4.148,3.984l-1.618,0l0,-5.906c0,-1.652 0.317,-2.062 1.782,-2.062Z" style="fill:#fff;fill-rule:nonzero;"/><path d="M45.094,70.235c-4.465,0 -7.629,3.61 -7.629,8.977c0,5.496 3.047,8.695 7.605,8.695c2.063,0 3.258,-0.726 4.442,-1.558c0.199,-0.129 0.363,-0.2 0.492,-0.2c0.34,0 0.504,0.434 0.586,1.418l0.551,0c-0.071,-1.218 -0.094,-2.859 -0.094,-5.765l-0.551,0c-0.246,1.945 -0.41,2.859 -1.113,3.797c-0.903,1.3 -2.66,1.828 -4.102,1.828c-3.093,0 -5.426,-2.953 -5.426,-8.309c0,-5.203 2.063,-8.449 5.192,-8.449c1.652,0 3.234,0.574 4.242,1.875c0.68,0.867 0.867,1.512 1.207,3.551l0.551,0c0,-2.789 0.023,-4.348 0.094,-5.52l-0.551,0c-0.082,0.985 -0.281,1.43 -0.61,1.43c-0.14,0 -0.292,-0.07 -0.468,-0.211c-1.055,-0.809 -2.309,-1.559 -4.418,-1.559Z" style="fill:#fff;fill-rule:nonzero;"/><path d="M72.255,70.575c-0.667,0.047 -1.816,0.071 -3.07,0.071c-1.101,0 -2.297,-0.024 -3.047,-0.071l0,0.481c1.629,0.07 1.946,0.316 1.946,2.062l0,5.66l-7.805,0l0,-5.66c0,-1.746 0.316,-1.992 1.945,-2.062l0,-0.481c-0.738,0.047 -1.945,0.071 -3.047,0.071c-1.242,0 -2.402,-0.024 -3.07,-0.071l0,0.481c1.629,0.07 1.945,0.316 1.945,2.062l0,11.906c0,1.747 -0.316,1.993 -1.945,2.063l0,0.48c0.668,-0.046 1.828,-0.07 3.07,-0.07c1.102,0 2.309,0.024 3.047,0.07l0,-0.48c-1.629,-0.07 -1.945,-0.316 -1.945,-2.063l0,-5.765l7.805,0l0,5.765c0,1.747 -0.317,1.993 -1.946,2.063l0,0.48c0.75,-0.046 1.946,-0.07 3.047,-0.07c1.254,0 2.403,0.024 3.07,0.07l0,-0.48c-1.628,-0.07 -1.945,-0.316 -1.945,-2.063l0,-11.906c0,-1.746 0.317,-1.992 1.945,-2.062l0,-0.481Z" style="fill:#fff;fill-rule:nonzero;"/><path d="M83.421,70.458l-0.387,0l-5.648,14.543c-0.551,1.441 -1.266,1.945 -1.887,2.086l0,0.48c0.481,-0.046 0.985,-0.07 1.793,-0.07c0.844,0 1.852,0.024 2.766,0.07l0,-0.48c-1.371,-0.035 -2.086,-0.399 -2.086,-1.441c0,-0.493 0.152,-1.137 0.48,-1.969l0.985,-2.543l5.789,0l1.476,3.937c0.188,0.481 0.282,0.844 0.282,1.125c0,0.668 -0.539,0.844 -1.7,0.891l0,0.48c0.68,-0.046 1.829,-0.07 3.071,-0.07c0.914,0 1.922,0.024 2.578,0.07l0,-0.48c-0.504,-0.024 -1.184,-0.316 -1.664,-1.535l-5.848,-15.094ZM85.05,80.653l-5.437,0l2.753,-7.16l2.684,7.16Z" style="fill:#fff;fill-rule:nonzero;"/><path d="M106.001,84.497c0,-0.668 0.023,-1.301 0.07,-1.734l-0.551,0c-0.34,3.175 -0.937,4.254 -3.937,4.254l-1.758,0c-1.629,0 -1.945,-0.246 -1.945,-1.993l0,-5.765l1.593,0c2.086,0 2.11,1.64 2.297,3.176l0.551,0c-0.117,-1.829 -0.141,-2.625 -0.141,-3.411c0,-0.351 -0.011,-0.703 -0.011,-1.148c0,-0.551 0.011,-1.242 0.082,-2.262l-0.551,0c-0.187,1.149 -0.141,3.164 -2.227,3.164l-1.593,0l0,-5.66c0,-1.746 0.316,-1.992 1.945,-1.992l1.992,0c2.543,0 2.906,0.937 3.223,3.773l0.551,0c-0.047,-0.363 -0.071,-0.914 -0.071,-1.488c0,-0.551 0.047,-1.711 0.164,-2.836c-1.488,0.071 -3.55,0.071 -5.015,0.071c-1.442,0 -4.606,0 -6.961,-0.071l0,0.481c1.629,0.07 1.945,0.316 1.945,2.062l0,11.906c0,1.747 -0.316,1.993 -1.945,2.063l0,0.48c2.355,-0.07 5.519,-0.07 6.961,-0.07c1.605,0 3.867,0 5.496,0.07c-0.117,-1.218 -0.164,-2.472 -0.164,-3.07Z" style="fill:#fff;fill-rule:nonzero;"/><path d="M118.62,70.235c-4.465,0 -7.629,3.61 -7.629,8.977c0,5.496 3.047,8.695 7.605,8.695c4.465,0 7.629,-3.609 7.629,-8.976c0,-5.496 -3.047,-8.696 -7.605,-8.696ZM118.526,70.669c2.953,0 5.297,3.246 5.297,8.355c0,4.969 -2.016,8.45 -5.133,8.45c-2.953,0 -5.309,-3.246 -5.309,-8.356c0,-4.969 2.016,-8.449 5.145,-8.449Z" style="fill:#fff;fill-rule:nonzero;"/><path d="M136.84,70.575c-0.738,0.047 -1.945,0.071 -3.047,0.071c-1.242,0 -2.402,-0.024 -3.07,-0.071l0,0.481c1.629,0.07 1.945,0.316 1.945,2.062l0,11.906c0,1.747 -0.316,1.993 -1.945,2.063l0,0.48c2.355,-0.07 5.519,-0.07 6.961,-0.07c1.605,0 3.867,0 5.496,0.07c-0.118,-1.218 -0.164,-2.472 -0.164,-3.07c0,-0.773 0.023,-1.465 0.07,-1.969l-0.551,0c-0.34,3.34 -0.937,4.489 -3.937,4.489l-1.758,0c-1.629,0 -1.945,-0.246 -1.945,-1.993l0,-11.906c0,-1.746 0.316,-1.992 1.945,-2.062l0,-0.481Z" style="fill:#fff;fill-rule:nonzero;"/><path d="M155.13,70.235c-4.464,0 -7.628,3.61 -7.628,8.977c0,5.496 3.046,8.695 7.605,8.695c4.465,0 7.629,-3.609 7.629,-8.976c0,-5.496 -3.047,-8.696 -7.606,-8.696ZM155.037,70.669c2.953,0 5.297,3.246 5.297,8.355c0,4.969 -2.016,8.45 -5.133,8.45c-2.953,0 -5.309,-3.246 -5.309,-8.356c0,-4.969 2.016,-8.449 5.145,-8.449Z" style="fill:#fff;fill-rule:nonzero;"/><path d="M175.437,70.235c-4.465,0 -7.723,3.528 -7.723,9.129c0,5.344 2.895,8.543 7.863,8.543c1.559,0 2.696,-0.504 3.75,-1.301c0.481,-0.363 0.598,-0.41 0.785,-0.41c0.411,0 0.633,0.821 0.657,1.371l0.48,0l0,-4.757c0,-1.77 0.164,-1.981 1.219,-2.063l0,-0.48c-0.574,0.058 -1.441,0.082 -2.496,0.082c-1.078,0 -2.543,-0.024 -3.387,-0.082l0,0.48c2.016,0.082 2.426,0.363 2.426,2.309l0,2.308c0,0.598 -0.094,0.903 -0.691,1.313c-0.481,0.34 -1.348,0.75 -2.497,0.75c-3.914,0 -5.718,-2.567 -5.718,-8.332c0,-5.157 2.097,-8.426 5.285,-8.426c1.605,0 3.211,0.703 4.148,1.875c0.75,0.914 0.985,2.203 1.207,3.551l0.551,0c0,-2.789 0.024,-4.348 0.094,-5.52l-0.551,0c-0.094,1.008 -0.293,1.465 -0.598,1.465c-0.152,0 -0.293,-0.094 -0.48,-0.246c-1.137,-0.809 -2.238,-1.559 -4.324,-1.559Z" style="fill:#fff;fill-rule:nonzero;"/><path d="M192.813,70.575c-0.738,0.047 -1.945,0.071 -3.047,0.071c-1.242,0 -2.402,-0.024 -3.07,-0.071l0,0.481c1.629,0.07 1.945,0.316 1.945,2.062l0,11.906c0,1.747 -0.316,1.993 -1.945,2.063l0,0.48c0.668,-0.046 1.828,-0.07 3.07,-0.07c1.102,0 2.309,0.024 3.047,0.07l0,-0.48c-1.629,-0.07 -1.945,-0.316 -1.945,-2.063l0,-11.906c0,-1.746 0.316,-1.992 1.945,-2.062l0,-0.481Z" style="fill:#fff;fill-rule:nonzero;"/><path d="M204.94,70.235c-4.465,0 -7.629,3.61 -7.629,8.977c0,5.496 3.047,8.695 7.605,8.695c2.063,0 3.258,-0.726 4.442,-1.558c0.199,-0.129 0.363,-0.2 0.492,-0.2c0.34,0 0.504,0.434 0.586,1.418l0.551,0c-0.071,-1.218 -0.094,-2.859 -0.094,-5.765l-0.551,0c-0.246,1.945 -0.41,2.859 -1.113,3.797c-0.902,1.3 -2.66,1.828 -4.102,1.828c-3.093,0 -5.425,-2.953 -5.425,-8.309c0,-5.203 2.062,-8.449 5.191,-8.449c1.652,0 3.234,0.574 4.242,1.875c0.68,0.867 0.867,1.512 1.207,3.551l0.551,0c0,-2.789 0.023,-4.348 0.094,-5.52l-0.551,0c-0.082,0.985 -0.281,1.43 -0.609,1.43c-0.141,0 -0.293,-0.07 -0.469,-0.211c-1.055,-0.809 -2.309,-1.559 -4.418,-1.559Z" style="fill:#fff;fill-rule:nonzero;"/><path d="M222.703,70.458l-0.387,0l-5.648,14.543c-0.551,1.441 -1.266,1.945 -1.887,2.086l0,0.48c0.481,-0.046 0.985,-0.07 1.793,-0.07c0.844,0 1.852,0.024 2.766,0.07l0,-0.48c-1.371,-0.035 -2.086,-0.399 -2.086,-1.441c0,-0.493 0.152,-1.137 0.48,-1.969l0.985,-2.543l5.789,0l1.476,3.937c0.188,0.481 0.282,0.844 0.282,1.125c0,0.668 -0.539,0.844 -1.7,0.891l0,0.48c0.68,-0.046 1.829,-0.07 3.071,-0.07c0.914,0 1.922,0.024 2.578,0.07l0,-0.48c-0.504,-0.024 -1.184,-0.316 -1.664,-1.535l-5.848,-15.094ZM224.332,80.653l-5.437,0l2.753,-7.16l2.684,7.16Z" style="fill:#fff;fill-rule:nonzero;"/><path d="M239.107,70.575c-0.738,0.047 -1.945,0.071 -3.047,0.071c-1.242,0 -2.402,-0.024 -3.07,-0.071l0,0.481c1.629,0.07 1.945,0.316 1.945,2.062l0,11.906c0,1.747 -0.316,1.993 -1.945,2.063l0,0.48c2.355,-0.07 5.519,-0.07 6.961,-0.07c1.605,0 3.867,0 5.496,0.07c-0.117,-1.218 -0.164,-2.472 -0.164,-3.07c0,-0.773 0.023,-1.465 0.07,-1.969l-0.551,0c-0.34,3.34 -0.937,4.489 -3.937,4.489l-1.758,0c-1.629,0 -1.945,-0.246 -1.945,-1.993l0,-11.906c0,-1.746 0.316,-1.992 1.945,-2.062l0,-0.481Z" style="fill:#fff;fill-rule:nonzero;"/><path d="M271.385,70.306c-2.367,0 -4.512,1.324 -4.512,4.16c0,2.707 1.993,4.008 4.278,5.379c2.226,1.336 3.738,2.437 3.738,4.383c0,2.261 -1.559,3.199 -3.117,3.199c-3.07,0 -4.172,-2.543 -4.371,-5.449l-0.551,0c0,3.386 -0.023,4.769 -0.094,5.753l0.551,0c0.094,-0.691 0.223,-1.054 0.527,-1.054c0.2,0 0.434,0.094 0.821,0.34c0.691,0.433 1.582,0.89 3.281,0.89c2.789,0 5.098,-1.511 5.098,-4.558c0,-2.578 -1.829,-3.844 -4.325,-5.403c-2.156,-1.347 -4.031,-2.215 -4.031,-4.394c0,-1.653 1.219,-2.789 2.93,-2.789c2.66,0 3.762,2.332 3.937,4.617l0.551,0c0,-3.024 0.047,-4.055 0.117,-4.899l-0.551,0c-0.093,0.692 -0.222,1.055 -0.527,1.055c-0.223,0 -0.433,-0.094 -0.82,-0.34c-0.645,-0.433 -1.348,-0.89 -2.93,-0.89Z" style="fill:#fff;fill-rule:nonzero;"/><path d="M289.512,70.235c-4.465,0 -7.629,3.61 -7.629,8.977c0,5.496 3.047,8.695 7.605,8.695c4.465,0 7.629,-3.609 7.629,-8.976c0,-5.496 -3.047,-8.696 -7.605,-8.696ZM289.418,70.669c2.953,0 5.297,3.246 5.297,8.355c0,4.969 -2.016,8.45 -5.133,8.45c-2.953,0 -5.309,-3.246 -5.309,-8.356c0,-4.969 2.016,-8.449 5.145,-8.449Z" style="fill:#fff;fill-rule:nonzero;"/><path d="M309.701,70.235c-4.465,0 -7.629,3.61 -7.629,8.977c0,5.496 3.047,8.695 7.605,8.695c2.063,0 3.258,-0.726 4.442,-1.558c0.199,-0.129 0.363,-0.2 0.492,-0.2c0.34,0 0.504,0.434 0.586,1.418l0.551,0c-0.071,-1.218 -0.094,-2.859 -0.094,-5.765l-0.551,0c-0.246,1.945 -0.41,2.859 -1.113,3.797c-0.903,1.3 -2.66,1.828 -4.102,1.828c-3.093,0 -5.426,-2.953 -5.426,-8.309c0,-5.203 2.063,-8.449 5.192,-8.449c1.652,0 3.234,0.574 4.242,1.875c0.68,0.867 0.867,1.512 1.207,3.551l0.551,0c0,-2.789 0.023,-4.348 0.094,-5.52l-0.551,0c-0.082,0.985 -0.281,1.43 -0.61,1.43c-0.14,0 -0.292,-0.07 -0.468,-0.211c-1.055,-0.809 -2.309,-1.559 -4.418,-1.559Z" style="fill:#fff;fill-rule:nonzero;"/><path d="M326.831,70.575c-0.738,0.047 -1.945,0.071 -3.047,0.071c-1.242,0 -2.402,-0.024 -3.07,-0.071l0,0.481c1.629,0.07 1.945,0.316 1.945,2.062l0,11.906c0,1.747 -0.316,1.993 -1.945,2.063l0,0.48c0.668,-0.046 1.828,-0.07 3.07,-0.07c1.102,0 2.309,0.024 3.047,0.07l0,-0.48c-1.629,-0.07 -1.945,-0.316 -1.945,-2.063l0,-11.906c0,-1.746 0.316,-1.992 1.945,-2.062l0,-0.481Z" style="fill:#fff;fill-rule:nonzero;"/><path d="M343.54,84.497c0,-0.668 0.023,-1.301 0.07,-1.734l-0.551,0c-0.339,3.175 -0.937,4.254 -3.937,4.254l-1.758,0c-1.629,0 -1.945,-0.246 -1.945,-1.993l0,-5.765l1.594,0c2.085,0 2.109,1.64 2.296,3.176l0.551,0c-0.117,-1.829 -0.14,-2.625 -0.14,-3.411c0,-0.351 -0.012,-0.703 -0.012,-1.148c0,-0.551 0.012,-1.242 0.082,-2.262l-0.551,0c-0.187,1.149 -0.141,3.164 -2.226,3.164l-1.594,0l0,-5.66c0,-1.746 0.316,-1.992 1.945,-1.992l1.992,0c2.543,0 2.906,0.937 3.223,3.773l0.551,0c-0.047,-0.363 -0.071,-0.914 -0.071,-1.488c0,-0.551 0.047,-1.711 0.164,-2.836c-1.488,0.071 -3.55,0.071 -5.015,0.071c-1.442,0 -4.606,0 -6.961,-0.071l0,0.481c1.629,0.07 1.945,0.316 1.945,2.062l0,11.906c0,1.747 -0.316,1.993 -1.945,2.063l0,0.48c2.355,-0.07 5.519,-0.07 6.961,-0.07c1.605,0 3.867,0 5.496,0.07c-0.117,-1.218 -0.164,-2.472 -0.164,-3.07Z" style="fill:#fff;fill-rule:nonzero;"/><path d="M361.455,70.575c-1.992,0.071 -4.769,0.071 -6.738,0.071c-1.969,0 -4.781,0 -6.773,-0.071c0.129,1.219 0.176,2.473 0.176,3.071c0,0.773 -0.024,1.464 -0.071,1.968l0.551,0c0.328,-3.34 0.691,-4.488 3.691,-4.488l1.301,0l0,13.652c0,1.946 -0.41,2.239 -2.426,2.309l0,0.48c0.762,-0.046 2.11,-0.07 3.551,-0.07c1.301,0 2.684,0.024 3.528,0.07l0,-0.48c-2.016,-0.07 -2.426,-0.363 -2.426,-2.309l0,-13.652l1.301,0c3,0 3.351,1.148 3.691,4.488l0.551,0c-0.047,-0.504 -0.071,-1.195 -0.071,-1.968c0,-0.598 0.047,-1.852 0.164,-3.071Z" style="fill:#fff;fill-rule:nonzero;"/><path d="M376.875,70.646c-0.844,0 -1.852,-0.024 -2.766,-0.071l0,0.481c1.336,0.035 2.121,0.328 2.121,1.277c0,0.492 -0.21,1.16 -0.656,2.063l-3.058,6.093l-3.996,-7.652c-0.176,-0.34 -0.247,-0.609 -0.247,-0.832c0,-0.715 0.774,-0.926 1.688,-0.926l0,-0.504c-1.031,0.071 -2.309,0.071 -3.363,0.071c-0.821,0 -1.489,-0.024 -2.11,-0.071l0,0.504c0.34,0 0.739,0.164 1.395,1.348l4.863,8.976l0,3.621c0,1.747 -0.305,1.993 -1.945,2.063l0,0.48c0.679,-0.046 1.828,-0.07 3.082,-0.07c1.101,0 2.297,0.024 3.047,0.07l0,-0.48c-1.641,-0.07 -1.946,-0.316 -1.946,-2.063l0,-4.371l3.762,-7.465c0.727,-1.417 1.301,-1.992 1.922,-2.132l0,-0.481c-0.48,0.047 -0.984,0.071 -1.793,0.071Z" style="fill:#fff;fill-rule:nonzero;"/><path d="M1.687,126.804l2.245,0c0.551,0 1.018,-0.077 1.401,-0.231c0.384,-0.154 0.684,-0.351 0.903,-0.591c0.218,-0.24 0.388,-0.567 0.51,-0.983c0.122,-0.415 0.199,-0.821 0.231,-1.219c0.032,-0.397 0.048,-0.89 0.048,-1.477l0,-6.649c0,-0.573 -0.023,-1.06 -0.069,-1.461c-0.047,-0.401 -0.137,-0.779 -0.269,-1.134c-0.132,-0.354 -0.315,-0.637 -0.548,-0.848c-0.233,-0.211 -0.537,-0.376 -0.913,-0.494c-0.376,-0.118 -0.825,-0.178 -1.348,-0.178l-2.191,0l0,15.265ZM0,128.061l0,-17.811l3.899,0c0.724,0 1.363,0.083 1.918,0.247c0.555,0.165 1.015,0.394 1.38,0.688c0.365,0.294 0.663,0.662 0.892,1.106c0.229,0.444 0.392,0.924 0.489,1.44c0.096,0.516 0.145,1.099 0.145,1.751l0,7.079c0,0.867 -0.079,1.626 -0.237,2.277c-0.157,0.652 -0.415,1.225 -0.773,1.719c-0.358,0.494 -0.843,0.868 -1.456,1.123c-0.612,0.254 -1.355,0.381 -2.229,0.381l-4.028,0Z" style="fill:#fff;fill-rule:nonzero;"/><rect x="18.137" y="110.25" width="1.654" height="17.811" style="fill:#fff;fill-rule:nonzero;"/><path d="M33.352,128.276c-1.41,0 -2.479,-0.425 -3.206,-1.273c-0.727,-0.849 -1.148,-2.036 -1.262,-3.561l1.493,-0.43c0.05,0.473 0.113,0.89 0.188,1.252c0.075,0.361 0.186,0.716 0.333,1.063c0.147,0.347 0.326,0.632 0.537,0.854c0.211,0.222 0.48,0.401 0.806,0.537c0.325,0.136 0.7,0.204 1.122,0.204c1.676,0 2.514,-0.859 2.514,-2.578c0,-0.379 -0.049,-0.736 -0.145,-1.069c-0.097,-0.333 -0.251,-0.659 -0.462,-0.977c-0.211,-0.319 -0.433,-0.607 -0.666,-0.865c-0.233,-0.258 -0.536,-0.569 -0.908,-0.935l-3.158,-3.029c-1.074,-1.031 -1.611,-2.227 -1.611,-3.588c0,-1.21 0.359,-2.148 1.079,-2.814c0.72,-0.666 1.696,-1.003 2.927,-1.01c0.029,0 0.054,0 0.076,0c1.296,0 2.288,0.351 2.975,1.053c0.702,0.716 1.11,1.873 1.225,3.47l-1.418,0.365c-0.1,-1.203 -0.358,-2.106 -0.774,-2.707c-0.401,-0.573 -1.045,-0.86 -1.933,-0.86c-0.043,0 -0.086,0 -0.129,0c-0.781,0.022 -1.395,0.226 -1.842,0.613c-0.448,0.386 -0.672,0.97 -0.672,1.751c0,0.487 0.095,0.929 0.285,1.326c0.19,0.398 0.514,0.818 0.972,1.262l3.137,2.976c0.809,0.774 1.446,1.556 1.912,2.347c0.465,0.792 0.698,1.649 0.698,2.573c0,1.296 -0.374,2.295 -1.122,2.997c-0.749,0.702 -1.739,1.053 -2.971,1.053Z" style="fill:#fff;fill-rule:nonzero;"/><path d="M50.415,128.287c-0.702,0 -1.319,-0.097 -1.853,-0.29c-0.533,-0.194 -0.967,-0.452 -1.3,-0.774c-0.333,-0.322 -0.603,-0.727 -0.811,-1.214c-0.207,-0.487 -0.351,-0.995 -0.429,-1.525c-0.079,-0.53 -0.118,-1.125 -0.118,-1.783l0,-7.079c0,-0.688 0.041,-1.302 0.123,-1.843c0.082,-0.54 0.229,-1.049 0.44,-1.525c0.212,-0.476 0.486,-0.872 0.822,-1.187c0.337,-0.315 0.768,-0.562 1.295,-0.741c0.526,-0.179 1.137,-0.269 1.831,-0.269c0.781,0 1.447,0.116 1.998,0.349c0.552,0.233 0.989,0.575 1.311,1.026c0.322,0.451 0.555,0.978 0.698,1.579c0.143,0.602 0.215,1.304 0.215,2.106l0,1.095l-1.59,0l0,-1.042c0,-0.63 -0.032,-1.156 -0.097,-1.579c-0.064,-0.422 -0.188,-0.811 -0.37,-1.165c-0.183,-0.355 -0.451,-0.616 -0.806,-0.784c-0.354,-0.169 -0.804,-0.253 -1.348,-0.253c-0.587,0 -1.072,0.093 -1.456,0.279c-0.383,0.187 -0.671,0.469 -0.864,0.849c-0.194,0.38 -0.326,0.793 -0.398,1.241c-0.071,0.447 -0.107,0.997 -0.107,1.649l0,7.562c0,1.382 0.206,2.389 0.617,3.019c0.412,0.63 1.148,0.945 2.208,0.945c0.437,0 0.813,-0.063 1.128,-0.188c0.315,-0.125 0.567,-0.292 0.757,-0.499c0.19,-0.208 0.34,-0.482 0.451,-0.822c0.111,-0.34 0.187,-0.691 0.226,-1.053c0.039,-0.362 0.059,-0.793 0.059,-1.294l0,-1.161l1.59,0l0,1.042c0,0.652 -0.039,1.238 -0.118,1.757c-0.079,0.519 -0.217,1.008 -0.414,1.466c-0.197,0.458 -0.453,0.838 -0.768,1.139c-0.315,0.301 -0.718,0.537 -1.208,0.709c-0.491,0.172 -1.062,0.258 -1.714,0.258Z" style="fill:#fff;fill-rule:nonzero;"/><path d="M68.047,126.933c0.573,0 1.053,-0.088 1.44,-0.263c0.387,-0.176 0.682,-0.439 0.886,-0.79c0.204,-0.351 0.347,-0.741 0.43,-1.171c0.082,-0.429 0.123,-0.945 0.123,-1.546l0,-8.057c0,-0.602 -0.041,-1.116 -0.123,-1.542c-0.083,-0.426 -0.226,-0.811 -0.43,-1.154c-0.204,-0.344 -0.499,-0.6 -0.886,-0.768c-0.387,-0.169 -0.867,-0.253 -1.44,-0.253c-0.572,0 -1.052,0.084 -1.439,0.253c-0.387,0.168 -0.682,0.424 -0.886,0.768c-0.204,0.343 -0.348,0.728 -0.43,1.154c-0.082,0.426 -0.123,0.94 -0.123,1.542l0,8.057c0,0.601 0.041,1.117 0.123,1.546c0.082,0.43 0.226,0.82 0.43,1.171c0.204,0.351 0.499,0.614 0.886,0.79c0.387,0.175 0.867,0.263 1.439,0.263ZM68.047,128.287c-0.859,0 -1.591,-0.131 -2.196,-0.393c-0.605,-0.261 -1.078,-0.644 -1.418,-1.149c-0.34,-0.505 -0.586,-1.078 -0.736,-1.719c-0.151,-0.641 -0.226,-1.384 -0.226,-2.229l0,-7.39c0,-0.838 0.077,-1.572 0.231,-2.202c0.154,-0.631 0.405,-1.187 0.752,-1.671c0.348,-0.483 0.822,-0.85 1.424,-1.101c0.601,-0.251 1.324,-0.376 2.169,-0.376c0.846,0 1.569,0.125 2.17,0.376c0.602,0.251 1.076,0.62 1.424,1.106c0.347,0.487 0.598,1.046 0.752,1.676c0.154,0.63 0.231,1.361 0.231,2.192l0,7.412c0,0.666 -0.045,1.267 -0.135,1.804c-0.089,0.538 -0.243,1.039 -0.462,1.504c-0.218,0.466 -0.499,0.854 -0.843,1.166c-0.344,0.311 -0.78,0.555 -1.31,0.73c-0.53,0.176 -1.139,0.264 -1.827,0.264Z" style="fill:#fff;fill-rule:nonzero;"/><path d="M85.121,128.061l-4.168,-17.811l1.601,0l3.362,14.739l3.169,-14.739l1.579,0l-4.018,17.811l-1.525,0Z" style="fill:#fff;fill-rule:nonzero;"/><path d="M99.337,128.061l0,-17.811l6.435,0l0,1.289l-4.748,0l0,6.671l3.889,0l0,1.246l-3.889,0l0,7.348l4.802,0l0,1.257l-6.489,0Z" style="fill:#fff;fill-rule:nonzero;"/><path d="M114.703,128.061l0,-17.811l4.05,0c1.582,0 2.714,0.382 3.394,1.144c0.681,0.763 1.021,1.882 1.021,3.357c0,2.457 -0.827,3.857 -2.482,4.201l2.761,9.109l-1.654,0l-2.611,-8.755l-2.793,0l0,8.755l-1.686,0ZM116.389,118.071l2.267,0c1.074,0 1.823,-0.263 2.245,-0.79c0.423,-0.526 0.634,-1.369 0.634,-2.53c0,-1.145 -0.201,-1.973 -0.602,-2.481c-0.401,-0.509 -1.142,-0.763 -2.223,-0.763l-2.321,0l0,6.564Z" style="fill:#fff;fill-rule:nonzero;"/><path d="M143.748,131.23l0.01,-20.99l1.504,0.01l-0.01,20.98l-1.504,0Z" style="fill:#fff;fill-rule:nonzero;"/><path d="M169.946,128.276c-1.411,0 -2.48,-0.425 -3.207,-1.273c-0.727,-0.849 -1.147,-2.036 -1.262,-3.561l1.493,-0.43c0.05,0.473 0.113,0.89 0.188,1.252c0.075,0.361 0.186,0.716 0.333,1.063c0.147,0.347 0.326,0.632 0.537,0.854c0.211,0.222 0.48,0.401 0.806,0.537c0.326,0.136 0.7,0.204 1.122,0.204c1.676,0 2.514,-0.859 2.514,-2.578c0,-0.379 -0.048,-0.736 -0.145,-1.069c-0.097,-0.333 -0.251,-0.659 -0.462,-0.977c-0.211,-0.319 -0.433,-0.607 -0.666,-0.865c-0.233,-0.258 -0.535,-0.569 -0.908,-0.935l-3.158,-3.029c-1.074,-1.031 -1.611,-2.227 -1.611,-3.588c0,-1.21 0.36,-2.148 1.08,-2.814c0.719,-0.666 1.695,-1.003 2.927,-1.01c0.028,0 0.053,0 0.075,0c1.296,0 2.288,0.351 2.976,1.053c0.701,0.716 1.11,1.873 1.224,3.47l-1.418,0.365c-0.1,-1.203 -0.358,-2.106 -0.773,-2.707c-0.401,-0.573 -1.046,-0.86 -1.934,-0.86c-0.043,0 -0.086,0 -0.129,0c-0.78,0.022 -1.394,0.226 -1.842,0.613c-0.448,0.386 -0.671,0.97 -0.671,1.751c0,0.487 0.094,0.929 0.284,1.326c0.19,0.398 0.514,0.818 0.972,1.262l3.137,2.976c0.809,0.774 1.447,1.556 1.912,2.347c0.466,0.792 0.698,1.649 0.698,2.573c0,1.296 -0.374,2.295 -1.122,2.997c-0.748,0.702 -1.739,1.053 -2.97,1.053Z" style="fill:#fff;fill-rule:nonzero;"/><path d="M184.774,128.061l0,-16.522l-3.577,0l0,-1.289l8.755,0l0,1.289l-3.491,0l0,16.522l-1.687,0Z" style="fill:#fff;fill-rule:nonzero;"/><path d="M202.363,128.287c-0.709,0 -1.332,-0.083 -1.869,-0.248c-0.537,-0.164 -0.974,-0.392 -1.31,-0.682c-0.337,-0.29 -0.609,-0.653 -0.817,-1.09c-0.207,-0.437 -0.352,-0.901 -0.435,-1.391c-0.082,-0.491 -0.123,-1.051 -0.123,-1.681l0,-12.945l1.622,0l0,12.998c0,0.444 0.025,0.842 0.075,1.193c0.05,0.351 0.14,0.686 0.269,1.004c0.129,0.319 0.3,0.584 0.515,0.795c0.215,0.211 0.498,0.38 0.849,0.505c0.351,0.125 0.759,0.188 1.224,0.188c0.559,0 1.034,-0.091 1.424,-0.274c0.39,-0.183 0.691,-0.447 0.902,-0.795c0.211,-0.347 0.364,-0.732 0.457,-1.155c0.093,-0.422 0.139,-0.909 0.139,-1.461l0,-12.998l1.612,0l0,12.945c0,0.623 -0.043,1.181 -0.129,1.676c-0.086,0.494 -0.237,0.959 -0.451,1.396c-0.215,0.437 -0.493,0.8 -0.833,1.09c-0.34,0.29 -0.773,0.518 -1.3,0.682c-0.526,0.165 -1.133,0.248 -1.821,0.248Z" style="fill:#fff;fill-rule:nonzero;"/><path d="M218.094,126.804l2.245,0c0.552,0 1.019,-0.077 1.402,-0.231c0.383,-0.154 0.684,-0.351 0.903,-0.591c0.218,-0.24 0.388,-0.567 0.51,-0.983c0.122,-0.415 0.199,-0.821 0.231,-1.219c0.032,-0.397 0.048,-0.89 0.048,-1.477l0,-6.649c0,-0.573 -0.023,-1.06 -0.07,-1.461c-0.046,-0.401 -0.136,-0.779 -0.268,-1.134c-0.133,-0.354 -0.315,-0.637 -0.548,-0.848c-0.233,-0.211 -0.537,-0.376 -0.913,-0.494c-0.376,-0.118 -0.825,-0.178 -1.348,-0.178l-2.192,0l0,15.265ZM216.408,128.061l0,-17.811l3.899,0c0.724,0 1.363,0.083 1.918,0.247c0.555,0.165 1.015,0.394 1.38,0.688c0.365,0.294 0.663,0.662 0.892,1.106c0.229,0.444 0.392,0.924 0.488,1.44c0.097,0.516 0.145,1.099 0.145,1.751l0,7.079c0,0.867 -0.078,1.626 -0.236,2.277c-0.157,0.652 -0.415,1.225 -0.773,1.719c-0.358,0.494 -0.844,0.868 -1.456,1.123c-0.612,0.254 -1.355,0.381 -2.229,0.381l-4.028,0Z" style="fill:#fff;fill-rule:nonzero;"/><path d="M237.316,128.061l0,-5.919l-4.017,-11.892l1.643,0l3.202,9.894l3.083,-9.894l1.643,0l-3.921,11.892l0,5.919l-1.633,0Z" style="fill:#fff;fill-rule:nonzero;"/><path d="M262.569,131.23l0.011,-20.99l1.504,0.01l-0.011,20.98l-1.504,0Z" style="fill:#fff;fill-rule:nonzero;"/><path d="M284.954,128.061l0,-17.811l4.05,0c1.582,0 2.714,0.382 3.394,1.144c0.68,0.763 1.021,1.882 1.021,3.357c0,2.457 -0.828,3.857 -2.482,4.201l2.761,9.109l-1.654,0l-2.611,-8.755l-2.793,0l0,8.755l-1.686,0ZM286.64,118.071l2.267,0c1.074,0 1.822,-0.263 2.245,-0.79c0.422,-0.526 0.634,-1.369 0.634,-2.53c0,-1.145 -0.201,-1.973 -0.602,-2.481c-0.401,-0.509 -1.142,-0.763 -2.223,-0.763l-2.321,0l0,6.564Z" style="fill:#fff;fill-rule:nonzero;"/><path d="M302.822,128.061l0,-17.811l6.435,0l0,1.289l-4.748,0l0,6.671l3.888,0l0,1.246l-3.888,0l0,7.348l4.802,0l0,1.257l-6.489,0Z" style="fill:#fff;fill-rule:nonzero;"/><path d="M322.345,128.287c-0.702,0 -1.319,-0.097 -1.853,-0.29c-0.533,-0.194 -0.967,-0.452 -1.3,-0.774c-0.333,-0.322 -0.603,-0.727 -0.811,-1.214c-0.207,-0.487 -0.351,-0.995 -0.429,-1.525c-0.079,-0.53 -0.119,-1.125 -0.119,-1.783l0,-7.079c0,-0.688 0.042,-1.302 0.124,-1.843c0.082,-0.54 0.229,-1.049 0.44,-1.525c0.212,-0.476 0.486,-0.872 0.822,-1.187c0.337,-0.315 0.768,-0.562 1.295,-0.741c0.526,-0.179 1.136,-0.269 1.831,-0.269c0.781,0 1.447,0.116 1.998,0.349c0.552,0.233 0.988,0.575 1.311,1.026c0.322,0.451 0.555,0.978 0.698,1.579c0.143,0.602 0.215,1.304 0.215,2.106l0,1.095l-1.59,0l0,-1.042c0,-0.63 -0.032,-1.156 -0.097,-1.579c-0.064,-0.422 -0.188,-0.811 -0.37,-1.165c-0.183,-0.355 -0.452,-0.616 -0.806,-0.784c-0.354,-0.169 -0.804,-0.253 -1.348,-0.253c-0.587,0 -1.073,0.093 -1.456,0.279c-0.383,0.187 -0.671,0.469 -0.864,0.849c-0.194,0.38 -0.326,0.793 -0.398,1.241c-0.072,0.447 -0.107,0.997 -0.107,1.649l0,7.562c0,1.382 0.206,2.389 0.617,3.019c0.412,0.63 1.148,0.945 2.208,0.945c0.437,0 0.813,-0.063 1.128,-0.188c0.315,-0.125 0.567,-0.292 0.757,-0.499c0.19,-0.208 0.34,-0.482 0.451,-0.822c0.111,-0.34 0.186,-0.691 0.226,-1.053c0.039,-0.362 0.059,-0.793 0.059,-1.294l0,-1.161l1.59,0l0,1.042c0,0.652 -0.04,1.238 -0.118,1.757c-0.079,0.519 -0.217,1.008 -0.414,1.466c-0.197,0.458 -0.453,0.838 -0.768,1.139c-0.315,0.301 -0.718,0.537 -1.209,0.709c-0.49,0.172 -1.061,0.258 -1.713,0.258Z" style="fill:#fff;fill-rule:nonzero;"/><path d="M339.977,126.933c0.573,0 1.053,-0.088 1.44,-0.263c0.387,-0.176 0.682,-0.439 0.886,-0.79c0.204,-0.351 0.347,-0.741 0.43,-1.171c0.082,-0.429 0.123,-0.945 0.123,-1.546l0,-8.057c0,-0.602 -0.041,-1.116 -0.123,-1.542c-0.083,-0.426 -0.226,-0.811 -0.43,-1.154c-0.204,-0.344 -0.499,-0.6 -0.886,-0.768c-0.387,-0.169 -0.867,-0.253 -1.44,-0.253c-0.573,0 -1.052,0.084 -1.439,0.253c-0.387,0.168 -0.682,0.424 -0.886,0.768c-0.204,0.343 -0.348,0.728 -0.43,1.154c-0.082,0.426 -0.124,0.94 -0.124,1.542l0,8.057c0,0.601 0.042,1.117 0.124,1.546c0.082,0.43 0.226,0.82 0.43,1.171c0.204,0.351 0.499,0.614 0.886,0.79c0.387,0.175 0.866,0.263 1.439,0.263ZM339.977,128.287c-0.859,0 -1.591,-0.131 -2.196,-0.393c-0.606,-0.261 -1.078,-0.644 -1.418,-1.149c-0.341,-0.505 -0.586,-1.078 -0.736,-1.719c-0.151,-0.641 -0.226,-1.384 -0.226,-2.229l0,-7.39c0,-0.838 0.077,-1.572 0.231,-2.202c0.154,-0.631 0.405,-1.187 0.752,-1.671c0.347,-0.483 0.822,-0.85 1.423,-1.101c0.602,-0.251 1.325,-0.376 2.17,-0.376c0.845,0 1.569,0.125 2.17,0.376c0.602,0.251 1.076,0.62 1.424,1.106c0.347,0.487 0.598,1.046 0.752,1.676c0.154,0.63 0.231,1.361 0.231,2.192l0,7.412c0,0.666 -0.045,1.267 -0.135,1.804c-0.089,0.538 -0.243,1.039 -0.462,1.504c-0.218,0.466 -0.499,0.854 -0.843,1.166c-0.344,0.311 -0.781,0.555 -1.31,0.73c-0.53,0.176 -1.139,0.264 -1.827,0.264Z" style="fill:#fff;fill-rule:nonzero;"/><path d="M353.893,128.061l0,-17.811l4.05,0c1.582,0 2.714,0.382 3.394,1.144c0.68,0.763 1.021,1.882 1.021,3.357c0,2.457 -0.828,3.857 -2.482,4.201l2.761,9.109l-1.654,0l-2.611,-8.755l-2.793,0l0,8.755l-1.686,0ZM355.579,118.071l2.267,0c1.074,0 1.822,-0.263 2.245,-0.79c0.423,-0.526 0.634,-1.369 0.634,-2.53c0,-1.145 -0.201,-1.973 -0.602,-2.481c-0.401,-0.509 -1.142,-0.763 -2.223,-0.763l-2.321,0l0,6.564Z" style="fill:#fff;fill-rule:nonzero;"/><path d="M373.448,126.804l2.245,0c0.551,0 1.019,-0.077 1.402,-0.231c0.383,-0.154 0.684,-0.351 0.902,-0.591c0.219,-0.24 0.389,-0.567 0.51,-0.983c0.122,-0.415 0.199,-0.821 0.231,-1.219c0.033,-0.397 0.049,-0.89 0.049,-1.477l0,-6.649c0,-0.573 -0.024,-1.06 -0.07,-1.461c-0.047,-0.401 -0.136,-0.779 -0.269,-1.134c-0.132,-0.354 -0.315,-0.637 -0.548,-0.848c-0.232,-0.211 -0.537,-0.376 -0.913,-0.494c-0.376,-0.118 -0.825,-0.178 -1.348,-0.178l-2.191,0l0,15.265ZM371.761,128.061l0,-17.811l3.9,0c0.723,0 1.362,0.083 1.917,0.247c0.555,0.165 1.015,0.394 1.381,0.688c0.365,0.294 0.662,0.662 0.891,1.106c0.229,0.444 0.392,0.924 0.489,1.44c0.097,0.516 0.145,1.099 0.145,1.751l0,7.079c0,0.867 -0.079,1.626 -0.236,2.277c-0.158,0.652 -0.416,1.225 -0.774,1.719c-0.358,0.494 -0.843,0.868 -1.455,1.123c-0.613,0.254 -1.356,0.381 -2.229,0.381l-4.029,0Z" style="fill:#fff;fill-rule:nonzero;"/><path d="M131.873,164.46l0,-14.573l5.256,0l0,1.029l-3.876,0l0,5.475l3.226,0l0,1.02l-3.226,0l0,7.049l-1.38,0Z" style="fill:#fff;fill-rule:nonzero;"/><path d="M144.071,163.537c0.468,0 0.861,-0.072 1.177,-0.216c0.317,-0.143 0.559,-0.359 0.726,-0.646c0.167,-0.287 0.284,-0.606 0.351,-0.958c0.067,-0.351 0.101,-0.773 0.101,-1.265l0,-6.592c0,-0.492 -0.034,-0.913 -0.101,-1.261c-0.067,-0.349 -0.184,-0.664 -0.351,-0.945c-0.167,-0.281 -0.409,-0.491 -0.726,-0.629c-0.316,-0.137 -0.709,-0.206 -1.177,-0.206c-0.469,0 -0.862,0.069 -1.178,0.206c-0.316,0.138 -0.558,0.348 -0.725,0.629c-0.167,0.281 -0.284,0.596 -0.352,0.945c-0.067,0.348 -0.101,0.769 -0.101,1.261l0,6.592c0,0.492 0.034,0.914 0.101,1.265c0.068,0.352 0.185,0.671 0.352,0.958c0.167,0.287 0.409,0.503 0.725,0.646c0.316,0.144 0.709,0.216 1.178,0.216ZM144.071,164.644c-0.703,0 -1.303,-0.107 -1.798,-0.321c-0.495,-0.214 -0.881,-0.527 -1.16,-0.94c-0.278,-0.413 -0.479,-0.882 -0.602,-1.406c-0.123,-0.525 -0.184,-1.133 -0.184,-1.824l0,-6.047c0,-0.686 0.063,-1.286 0.189,-1.802c0.126,-0.515 0.331,-0.971 0.615,-1.366c0.284,-0.396 0.672,-0.696 1.164,-0.901c0.493,-0.205 1.084,-0.308 1.776,-0.308c0.691,0 1.283,0.103 1.775,0.308c0.492,0.205 0.88,0.507 1.165,0.905c0.284,0.398 0.489,0.855 0.615,1.371c0.126,0.516 0.189,1.113 0.189,1.793l0,6.064c0,0.545 -0.037,1.038 -0.11,1.477c-0.073,0.439 -0.199,0.85 -0.378,1.231c-0.179,0.38 -0.409,0.698 -0.69,0.953c-0.281,0.255 -0.639,0.454 -1.072,0.598c-0.434,0.143 -0.932,0.215 -1.494,0.215Z" style="fill:#fff;fill-rule:nonzero;"/><path d="M155.433,164.644c-0.58,0 -1.09,-0.067 -1.529,-0.202c-0.44,-0.135 -0.797,-0.321 -1.072,-0.558c-0.276,-0.237 -0.498,-0.535 -0.668,-0.892c-0.17,-0.358 -0.289,-0.737 -0.356,-1.138c-0.068,-0.402 -0.101,-0.86 -0.101,-1.376l0,-10.591l1.327,0l0,10.635c0,0.363 0.02,0.689 0.061,0.976c0.041,0.287 0.115,0.561 0.22,0.821c0.106,0.261 0.246,0.478 0.422,0.651c0.176,0.173 0.407,0.31 0.694,0.413c0.287,0.102 0.621,0.154 1.002,0.154c0.457,0 0.845,-0.075 1.165,-0.224c0.319,-0.15 0.565,-0.367 0.738,-0.651c0.173,-0.284 0.297,-0.599 0.374,-0.945c0.076,-0.345 0.114,-0.744 0.114,-1.195l0,-10.635l1.318,0l0,10.591c0,0.51 -0.035,0.967 -0.105,1.371c-0.071,0.404 -0.194,0.785 -0.369,1.143c-0.176,0.357 -0.403,0.655 -0.682,0.892c-0.278,0.237 -0.632,0.423 -1.063,0.558c-0.431,0.135 -0.927,0.202 -1.49,0.202Z" style="fill:#fff;fill-rule:nonzero;"/><path d="M163.324,164.46l0,-14.573l1.011,0l4.64,11.312l0,-11.312l1.178,0l0,14.573l-0.967,0l-4.675,-11.444l0,11.444l-1.187,0Z" style="fill:#fff;fill-rule:nonzero;"/><path d="M175.864,163.431l1.837,0c0.451,0 0.834,-0.063 1.147,-0.189c0.314,-0.126 0.56,-0.287 0.738,-0.483c0.179,-0.196 0.318,-0.465 0.418,-0.804c0.1,-0.34 0.163,-0.673 0.189,-0.998c0.026,-0.325 0.039,-0.728 0.039,-1.208l0,-5.441c0,-0.469 -0.019,-0.867 -0.057,-1.195c-0.038,-0.328 -0.111,-0.637 -0.219,-0.927c-0.109,-0.29 -0.258,-0.522 -0.449,-0.695c-0.19,-0.173 -0.439,-0.307 -0.747,-0.404c-0.307,-0.097 -0.675,-0.145 -1.103,-0.145l-1.793,0l0,12.489ZM174.484,164.46l0,-14.573l3.191,0c0.592,0 1.115,0.068 1.569,0.202c0.454,0.135 0.83,0.323 1.129,0.563c0.299,0.24 0.542,0.542 0.73,0.905c0.187,0.363 0.32,0.756 0.399,1.178c0.08,0.422 0.119,0.899 0.119,1.433l0,5.792c0,0.709 -0.064,1.33 -0.193,1.863c-0.129,0.533 -0.34,1.002 -0.633,1.406c-0.293,0.404 -0.69,0.711 -1.191,0.919c-0.501,0.208 -1.109,0.312 -1.824,0.312l-3.296,0Z" style="fill:#fff;fill-rule:nonzero;"/><path d="M185.662,164.46l0,-14.573l5.265,0l0,1.055l-3.885,0l0,5.458l3.182,0l0,1.019l-3.182,0l0,6.012l3.929,0l0,1.029l-5.309,0Z" style="fill:#fff;fill-rule:nonzero;"/><path d="M196.014,163.431l1.837,0c0.451,0 0.833,-0.063 1.147,-0.189c0.313,-0.126 0.56,-0.287 0.738,-0.483c0.179,-0.196 0.318,-0.465 0.418,-0.804c0.099,-0.34 0.162,-0.673 0.189,-0.998c0.026,-0.325 0.039,-0.728 0.039,-1.208l0,-5.441c0,-0.469 -0.019,-0.867 -0.057,-1.195c-0.038,-0.328 -0.111,-0.637 -0.22,-0.927c-0.108,-0.29 -0.257,-0.522 -0.448,-0.695c-0.19,-0.173 -0.439,-0.307 -0.747,-0.404c-0.308,-0.097 -0.675,-0.145 -1.103,-0.145l-1.793,0l0,12.489ZM194.634,164.46l0,-14.573l3.191,0c0.591,0 1.114,0.068 1.568,0.202c0.455,0.135 0.831,0.323 1.13,0.563c0.299,0.24 0.542,0.542 0.729,0.905c0.188,0.363 0.321,0.756 0.4,1.178c0.079,0.422 0.119,0.899 0.119,1.433l0,5.792c0,0.709 -0.065,1.33 -0.193,1.863c-0.129,0.533 -0.34,1.002 -0.633,1.406c-0.293,0.404 -0.69,0.711 -1.191,0.919c-0.501,0.208 -1.109,0.312 -1.824,0.312l-3.296,0Z" style="fill:#fff;fill-rule:nonzero;"/><path d="M213.87,164.46l0,-12.824c-0.188,0.276 -0.943,0.595 -2.268,0.958l0,-1.063c0.422,-0.112 0.875,-0.312 1.358,-0.602c0.484,-0.29 0.872,-0.637 1.165,-1.042l1.063,0l0,14.573l-1.318,0Z" style="fill:#fff;fill-rule:nonzero;"/><path d="M224.002,164.644c-2.191,0 -3.302,-1.137 -3.331,-3.41l0,-0.264l1.301,0c0,0.938 0.151,1.601 0.452,1.991c0.302,0.39 0.834,0.584 1.596,0.584c0.65,0 1.141,-0.24 1.472,-0.72c0.331,-0.481 0.496,-1.289 0.496,-2.426l0,-2.742c-0.205,0.234 -0.508,0.435 -0.909,0.602c-0.402,0.167 -0.881,0.25 -1.437,0.25c-1.172,0 -1.99,-0.337 -2.453,-1.01c-0.462,-0.674 -0.694,-1.785 -0.694,-3.331c0,-2.959 1.157,-4.439 3.472,-4.439c2.232,0 3.348,1.521 3.348,4.562l0,5.818c0,3.023 -1.104,4.535 -3.313,4.535ZM223.949,157.49c0.85,0 1.53,-0.281 2.039,-0.844l0,-2.514c0,-1.166 -0.159,-2.008 -0.479,-2.526c-0.319,-0.519 -0.833,-0.778 -1.542,-0.778c-0.721,0 -1.256,0.252 -1.604,0.756c-0.349,0.503 -0.523,1.28 -0.523,2.329c0,0.439 0.009,0.807 0.026,1.103c0.018,0.296 0.051,0.59 0.101,0.883c0.05,0.293 0.122,0.529 0.216,0.708c0.093,0.178 0.218,0.339 0.373,0.483c0.155,0.143 0.347,0.246 0.576,0.308c0.228,0.061 0.501,0.092 0.817,0.092Z" style="fill:#fff;fill-rule:nonzero;"/><path d="M234.626,164.627c-1.142,0 -1.97,-0.329 -2.483,-0.985c-0.512,-0.656 -0.769,-1.638 -0.769,-2.944l1.319,0c0,0.943 0.149,1.658 0.448,2.144c0.299,0.487 0.808,0.73 1.529,0.73c0.785,0 1.32,-0.296 1.604,-0.888c0.284,-0.592 0.426,-1.535 0.426,-2.83c0,-1.336 -0.149,-2.276 -0.448,-2.821c-0.299,-0.545 -0.817,-0.818 -1.556,-0.818c-0.779,0 -1.409,0.408 -1.889,1.222l-1.108,0l0,-7.55l5.678,0l-0.026,1.231l-4.483,0l-0.07,5.053c0.516,-0.644 1.26,-0.966 2.232,-0.966c1.043,0 1.799,0.382 2.268,1.147c0.469,0.764 0.703,1.879 0.703,3.344c0,1.635 -0.263,2.865 -0.791,3.691c-0.527,0.826 -1.389,1.24 -2.584,1.24Z" style="fill:#fff;fill-rule:nonzero;"/><path d="M245.954,164.46l0,-4.237l-4.386,0l0,-1.38l4.113,-8.965l1.6,0l0,9.106l1.652,0l0,1.239l-1.652,0l0,4.237l-1.327,0ZM242.921,158.984l3.033,0l0,-7.321l-3.033,7.321Z" style="fill:#fff;fill-rule:nonzero;"/></svg>