<?xml version="1.0" encoding="UTF-8" standalone="no"?><!DOCTYPE svg PUBLIC "-//W3C//DTD SVG 1.1//EN" "http://www.w3.org/Graphics/SVG/1.1/DTD/svg11.dtd"><svg width="100%" height="100%" viewBox="0 0 378 88" version="1.1" xmlns="http://www.w3.org/2000/svg" xmlns:xlink="http://www.w3.org/1999/xlink" xml:space="preserve" style="fill-rule:evenodd;clip-rule:evenodd;stroke-linejoin:round;stroke-miterlimit:1.41421;"><path d="M26.207,0l-1.031,0l-15.063,38.781c-1.469,3.844 -3.375,5.188 -5.031,5.563l0,1.281c1.281,-0.125 2.625,-0.188 4.781,-0.188c2.25,0.001 4.938,0.063 7.375,0.188l0,-1.281c-3.656,-0.094 -5.562,-1.063 -5.562,-3.844c0,-1.312 0.406,-3.031 1.281,-5.25l2.625,-6.781l15.437,0l3.938,10.5c0.5,1.281 0.75,2.25 0.75,3c0,1.781 -1.438,2.25 -4.531,2.375l0,1.281c1.812,-0.125 4.875,-0.188 8.187,-0.188c2.438,0.001 5.125,0.063 6.875,0.188l0,-1.281c-1.344,-0.063 -3.156,-0.844 -4.437,-4.094l-15.594,-40.25ZM30.551,27.188l-14.5,0l7.343,-19.094l7.157,19.094Z" style="fill:#fff;fill-rule:nonzero;"/><path d="M76.351,0.313c-1.969,0.125 -5.188,0.187 -8.125,0.187c-3.313,0 -6.407,-0.062 -8.188,-0.187l0,1.281c4.344,0.187 5.188,0.844 5.188,5.5l0,31.75c0,4.656 -0.844,5.312 -5.188,5.5l0,1.281c6.281,-0.188 14.719,-0.188 18.563,-0.188c4.281,0.001 10.312,0.001 14.656,0.188c-0.313,-3.25 -0.438,-6.594 -0.438,-8.188c0,-2.062 0.063,-3.906 0.188,-5.249l-1.469,0c-0.906,8.906 -2.5,11.968 -10.5,11.968l-4.687,0c-4.344,0 -5.188,-0.656 -5.188,-5.312l0,-31.75c0,-4.656 0.844,-5.313 5.188,-5.5l0,-1.281Z" style="fill:#fff;fill-rule:nonzero;"/><path d="M128.463,0l-1.031,0l-15.063,38.781c-1.468,3.844 -3.375,5.188 -5.031,5.563l0,1.281c1.281,-0.125 2.625,-0.188 4.781,-0.188c2.25,0.001 4.938,0.063 7.375,0.188l0,-1.281c-3.656,-0.094 -5.562,-1.063 -5.562,-3.844c0,-1.312 0.406,-3.031 1.281,-5.25l2.625,-6.781l15.438,0l3.937,10.5c0.5,1.281 0.75,2.25 0.75,3c0,1.781 -1.437,2.25 -4.531,2.375l0,1.281c1.812,-0.125 4.875,-0.188 8.187,-0.188c2.438,0.001 5.125,0.063 6.875,0.188l0,-1.281c-1.343,-0.063 -3.156,-0.844 -4.437,-4.094l-15.594,-40.25ZM132.807,27.188l-14.5,0l7.344,-19.094l7.156,19.094Z" style="fill:#fff;fill-rule:nonzero;"/><path d="M183.544,21.563c7.157,-2.188 9.719,-6.594 9.719,-11.125c0,-5.907 -4.531,-10.063 -13.5,-10.063c-1.531,0 -5.625,0.125 -9.656,0.125c-2.813,0 -6.031,-0.062 -7.813,-0.187l0,1.281c4.344,0.187 5.188,0.844 5.188,5.5l0,31.75c0,4.656 -0.844,5.312 -5.188,5.5l0,1.281c1.782,-0.125 4.938,-0.187 7.938,-0.187c5.25,0 9.094,0.187 11,0.187c9.594,0 15.375,-5.125 15.375,-12.406c0,-5.188 -2.938,-10.188 -13.063,-11.531l0,-0.125ZM178.169,1.594c6.407,0 8.969,3.25 8.969,9.531c0,5.563 -1.875,10.438 -9.406,10.438l-4.313,0l0,-14.469c0,-4.406 0.844,-5.5 4.75,-5.5ZM178.232,44.156c-3.969,0 -4.813,-0.843 -4.813,-5.312l0,-16.188l5.375,0c8.125,0 11.407,3.782 11.407,10.281c0,7.188 -3.594,11.219 -11.969,11.219Z" style="fill:#fff;fill-rule:nonzero;"/><path d="M232.532,0l-1.031,0l-15.063,38.781c-1.469,3.844 -3.375,5.188 -5.031,5.563l0,1.281c1.281,-0.125 2.625,-0.188 4.781,-0.188c2.25,0.001 4.938,0.063 7.375,0.188l0,-1.281c-3.656,-0.094 -5.562,-1.063 -5.562,-3.844c0,-1.312 0.406,-3.031 1.281,-5.25l2.625,-6.781l15.437,0l3.938,10.5c0.5,1.281 0.75,2.25 0.75,3c0,1.781 -1.438,2.25 -4.531,2.375l0,1.281c1.812,-0.125 4.875,-0.188 8.187,-0.188c2.438,0.001 5.125,0.063 6.875,0.188l0,-1.281c-1.344,-0.063 -3.156,-0.844 -4.437,-4.094l-15.594,-40.25ZM236.876,27.188l-14.5,0l7.343,-19.094l7.157,19.094Z" style="fill:#fff;fill-rule:nonzero;"/><path d="M316.738,0.313c-2,0.125 -5.187,0.187 -8.125,0.187l-3.031,0l-13.75,36.938l-14.063,-37.125c-1.406,0.125 -3.593,0.187 -5.468,0.187c-2.157,0 -4.532,-0.062 -5.938,-0.187l0,1.281c4.344,0.187 5.188,0.844 5.188,5.5l0,31.094c0,4.687 -0.844,5.968 -5.188,6.156l0,1.281c1.406,-0.125 3.781,-0.188 5.938,-0.188c2.187,0.001 5,0.063 6.531,0.188l0,-1.281c-4.969,-0.188 -5.813,-1.469 -5.813,-6.157l0,-33.781l16.125,41.532l1.032,-0.001l15.406,-41.343l0,34.25c0,4.656 -0.813,5.312 -5.156,5.5l0,1.281c1.781,-0.125 4.843,-0.188 8.187,-0.188c2.938,0.001 6.125,0.063 8.125,0.188l0,-1.281c-4.344,-0.188 -5.187,-0.844 -5.187,-5.5l0,-31.75c0,-4.656 0.843,-5.313 5.187,-5.5l0,-1.281Z" style="fill:#fff;fill-rule:nonzero;"/><path d="M352.913,0l-1.031,0l-15.063,38.781c-1.468,3.844 -3.375,5.188 -5.031,5.563l0,1.281c1.281,-0.125 2.625,-0.188 4.781,-0.188c2.25,0.001 4.938,0.063 7.375,0.188l0,-1.281c-3.656,-0.094 -5.562,-1.063 -5.562,-3.844c0,-1.312 0.406,-3.031 1.281,-5.25l2.625,-6.781l15.438,0l3.937,10.5c0.5,1.281 0.75,2.25 0.75,3c0,1.781 -1.437,2.25 -4.531,2.375l0,1.281c1.812,-0.125 4.875,-0.188 8.187,-0.188c2.438,0.001 5.125,0.063 6.875,0.188l0,-1.281c-1.343,-0.063 -3.156,-0.844 -4.437,-4.094l-15.594,-40.25ZM357.257,27.188l-14.5,0l7.344,-19.094l7.156,19.094Z" style="fill:#fff;fill-rule:nonzero;"/><path d="M7.922,70.458l-0.387,0l-5.648,14.543c-0.551,1.441 -1.266,1.945 -1.887,2.086l0,0.48c0.48,-0.046 0.984,-0.07 1.793,-0.07c0.844,0 1.852,0.024 2.766,0.07l0,-0.48c-1.372,-0.035 -2.086,-0.399 -2.086,-1.441c0,-0.493 0.152,-1.137 0.48,-1.969l0.984,-2.543l5.79,0l1.476,3.937c0.188,0.481 0.281,0.844 0.281,1.125c0,0.668 -0.539,0.844 -1.699,0.891l0,0.48c0.68,-0.046 1.828,-0.07 3.07,-0.07c0.915,0 1.922,0.024 2.579,0.07l0,-0.48c-0.504,-0.024 -1.184,-0.316 -1.664,-1.535l-5.848,-15.094ZM9.551,80.653l-5.438,0l2.754,-7.16l2.684,7.16Z" style="fill:#fff;fill-rule:nonzero;"/><path d="M32.681,86.103c-0.445,0.562 -0.726,0.914 -1.312,0.914c-0.668,0 -0.938,-0.575 -1.231,-1.969l-0.597,-2.449c-0.457,-1.993 -1.231,-2.813 -3.364,-3.164l-0.293,-0.047c3.621,-0.563 4.664,-2.953 4.664,-4.617c0,-2.344 -1.921,-4.172 -5.789,-4.172c-0.574,0 -2.109,0.047 -3.621,0.047c-1.054,0 -2.261,-0.024 -2.929,-0.071l0,0.481c1.629,0.07 1.945,0.316 1.945,2.062l0,11.906c0,1.747 -0.316,1.993 -1.945,2.063l0,0.48c0.668,-0.046 1.828,-0.07 3.07,-0.07c1.101,0 2.309,0.024 3.047,0.07l0,-0.48c-1.629,-0.07 -1.946,-0.316 -1.946,-2.063l0,-5.519l2.286,0c1.898,0 2.25,1.371 2.707,3.41l0.527,2.391c0.457,2.05 1.371,2.601 2.578,2.601c1.289,0 1.887,-0.551 2.567,-1.535l-0.364,-0.269ZM24.162,71.056c2.906,0 3.984,1.465 3.984,3.984c0,2.203 -0.75,3.984 -4.148,3.984l-1.618,0l0,-5.906c0,-1.652 0.317,-2.062 1.782,-2.062Z" style="fill:#fff;fill-rule:nonzero;"/><path d="M44.058,70.235c-4.465,0 -7.629,3.61 -7.629,8.977c0,5.496 3.047,8.695 7.605,8.695c2.063,0 3.258,-0.726 4.442,-1.558c0.199,-0.129 0.363,-0.2 0.492,-0.2c0.34,0 0.504,0.434 0.586,1.418l0.551,0c-0.071,-1.218 -0.094,-2.859 -0.094,-5.765l-0.551,0c-0.246,1.945 -0.41,2.859 -1.113,3.797c-0.902,1.3 -2.66,1.828 -4.102,1.828c-3.093,0 -5.425,-2.953 -5.425,-8.309c0,-5.203 2.062,-8.449 5.191,-8.449c1.652,0 3.234,0.574 4.242,1.875c0.68,0.867 0.867,1.512 1.207,3.551l0.551,0c0,-2.789 0.023,-4.348 0.094,-5.52l-0.551,0c-0.082,0.985 -0.281,1.43 -0.609,1.43c-0.141,0 -0.293,-0.07 -0.469,-0.211c-1.055,-0.809 -2.309,-1.559 -4.418,-1.559Z" style="fill:#fff;fill-rule:nonzero;"/><path d="M71.22,70.575c-0.668,0.047 -1.817,0.071 -3.071,0.071c-1.101,0 -2.297,-0.024 -3.047,-0.071l0,0.481c1.629,0.07 1.946,0.316 1.946,2.062l0,5.66l-7.805,0l0,-5.66c0,-1.746 0.316,-1.992 1.945,-2.062l0,-0.481c-0.738,0.047 -1.945,0.071 -3.047,0.071c-1.242,0 -2.402,-0.024 -3.07,-0.071l0,0.481c1.629,0.07 1.945,0.316 1.945,2.062l0,11.906c0,1.747 -0.316,1.993 -1.945,2.063l0,0.48c0.668,-0.046 1.828,-0.07 3.07,-0.07c1.102,0 2.309,0.024 3.047,0.07l0,-0.48c-1.629,-0.07 -1.945,-0.316 -1.945,-2.063l0,-5.765l7.805,0l0,5.765c0,1.747 -0.317,1.993 -1.946,2.063l0,0.48c0.75,-0.046 1.946,-0.07 3.047,-0.07c1.254,0 2.403,0.024 3.071,0.07l0,-0.48c-1.629,-0.07 -1.946,-0.316 -1.946,-2.063l0,-11.906c0,-1.746 0.317,-1.992 1.946,-2.062l0,-0.481Z" style="fill:#fff;fill-rule:nonzero;"/><path d="M82.385,70.458l-0.387,0l-5.648,14.543c-0.551,1.441 -1.266,1.945 -1.887,2.086l0,0.48c0.481,-0.046 0.985,-0.07 1.793,-0.07c0.844,0 1.852,0.024 2.766,0.07l0,-0.48c-1.371,-0.035 -2.086,-0.399 -2.086,-1.441c0,-0.493 0.152,-1.137 0.48,-1.969l0.985,-2.543l5.789,0l1.476,3.937c0.188,0.481 0.282,0.844 0.282,1.125c0,0.668 -0.539,0.844 -1.7,0.891l0,0.48c0.68,-0.046 1.829,-0.07 3.071,-0.07c0.914,0 1.922,0.024 2.578,0.07l0,-0.48c-0.504,-0.024 -1.184,-0.316 -1.664,-1.535l-5.848,-15.094ZM84.014,80.653l-5.437,0l2.753,-7.16l2.684,7.16Z" style="fill:#fff;fill-rule:nonzero;"/><path d="M104.965,84.497c0,-0.668 0.023,-1.301 0.07,-1.734l-0.551,0c-0.339,3.175 -0.937,4.254 -3.937,4.254l-1.758,0c-1.629,0 -1.945,-0.246 -1.945,-1.993l0,-5.765l1.593,0c2.086,0 2.11,1.64 2.297,3.176l0.551,0c-0.117,-1.829 -0.14,-2.625 -0.14,-3.411c0,-0.351 -0.012,-0.703 -0.012,-1.148c0,-0.551 0.012,-1.242 0.082,-2.262l-0.551,0c-0.187,1.149 -0.141,3.164 -2.227,3.164l-1.593,0l0,-5.66c0,-1.746 0.316,-1.992 1.945,-1.992l1.992,0c2.543,0 2.907,0.937 3.223,3.773l0.551,0c-0.047,-0.363 -0.071,-0.914 -0.071,-1.488c0,-0.551 0.047,-1.711 0.164,-2.836c-1.488,0.071 -3.55,0.071 -5.015,0.071c-1.442,0 -4.606,0 -6.961,-0.071l0,0.481c1.629,0.07 1.945,0.316 1.945,2.062l0,11.906c0,1.747 -0.316,1.993 -1.945,2.063l0,0.48c2.355,-0.07 5.519,-0.07 6.961,-0.07c1.605,0 3.867,0 5.496,0.07c-0.117,-1.218 -0.164,-2.472 -0.164,-3.07Z" style="fill:#fff;fill-rule:nonzero;"/><path d="M117.584,70.235c-4.465,0 -7.629,3.61 -7.629,8.977c0,5.496 3.047,8.695 7.605,8.695c4.465,0 7.629,-3.609 7.629,-8.976c0,-5.496 -3.047,-8.696 -7.605,-8.696ZM117.49,70.669c2.953,0 5.297,3.246 5.297,8.355c0,4.969 -2.016,8.45 -5.133,8.45c-2.953,0 -5.309,-3.246 -5.309,-8.356c0,-4.969 2.016,-8.449 5.145,-8.449Z" style="fill:#fff;fill-rule:nonzero;"/><path d="M135.804,70.575c-0.738,0.047 -1.945,0.071 -3.047,0.071c-1.242,0 -2.402,-0.024 -3.07,-0.071l0,0.481c1.629,0.07 1.945,0.316 1.945,2.062l0,11.906c0,1.747 -0.316,1.993 -1.945,2.063l0,0.48c2.355,-0.07 5.519,-0.07 6.961,-0.07c1.605,0 3.867,0 5.496,0.07c-0.117,-1.218 -0.164,-2.472 -0.164,-3.07c0,-0.773 0.023,-1.465 0.07,-1.969l-0.551,0c-0.34,3.34 -0.937,4.489 -3.937,4.489l-1.758,0c-1.629,0 -1.945,-0.246 -1.945,-1.993l0,-11.906c0,-1.746 0.316,-1.992 1.945,-2.062l0,-0.481Z" style="fill:#fff;fill-rule:nonzero;"/><path d="M154.095,70.235c-4.465,0 -7.629,3.61 -7.629,8.977c0,5.496 3.046,8.695 7.605,8.695c4.465,0 7.629,-3.609 7.629,-8.976c0,-5.496 -3.047,-8.696 -7.605,-8.696ZM154.001,70.669c2.953,0 5.297,3.246 5.297,8.355c0,4.969 -2.016,8.45 -5.133,8.45c-2.953,0 -5.309,-3.246 -5.309,-8.356c0,-4.969 2.016,-8.449 5.145,-8.449Z" style="fill:#fff;fill-rule:nonzero;"/><path d="M174.401,70.235c-4.465,0 -7.723,3.528 -7.723,9.129c0,5.344 2.895,8.543 7.863,8.543c1.559,0 2.696,-0.504 3.75,-1.301c0.481,-0.363 0.598,-0.41 0.786,-0.41c0.41,0 0.632,0.821 0.656,1.371l0.48,0l0,-4.757c0,-1.77 0.164,-1.981 1.219,-2.063l0,-0.48c-0.574,0.058 -1.441,0.082 -2.496,0.082c-1.078,0 -2.543,-0.024 -3.387,-0.082l0,0.48c2.016,0.082 2.426,0.363 2.426,2.309l0,2.308c0,0.598 -0.094,0.903 -0.691,1.313c-0.481,0.34 -1.348,0.75 -2.496,0.75c-3.915,0 -5.719,-2.567 -5.719,-8.332c0,-5.157 2.097,-8.426 5.285,-8.426c1.605,0 3.211,0.703 4.148,1.875c0.75,0.914 0.985,2.203 1.207,3.551l0.551,0c0,-2.789 0.024,-4.348 0.094,-5.52l-0.551,0c-0.094,1.008 -0.293,1.465 -0.598,1.465c-0.152,0 -0.292,-0.094 -0.48,-0.246c-1.137,-0.809 -2.238,-1.559 -4.324,-1.559Z" style="fill:#fff;fill-rule:nonzero;"/><path d="M191.777,70.575c-0.738,0.047 -1.945,0.071 -3.047,0.071c-1.242,0 -2.402,-0.024 -3.07,-0.071l0,0.481c1.629,0.07 1.945,0.316 1.945,2.062l0,11.906c0,1.747 -0.316,1.993 -1.945,2.063l0,0.48c0.668,-0.046 1.828,-0.07 3.07,-0.07c1.102,0 2.309,0.024 3.047,0.07l0,-0.48c-1.629,-0.07 -1.945,-0.316 -1.945,-2.063l0,-11.906c0,-1.746 0.316,-1.992 1.945,-2.062l0,-0.481Z" style="fill:#fff;fill-rule:nonzero;"/><path d="M203.904,70.235c-4.465,0 -7.629,3.61 -7.629,8.977c0,5.496 3.047,8.695 7.605,8.695c2.063,0 3.258,-0.726 4.442,-1.558c0.199,-0.129 0.363,-0.2 0.492,-0.2c0.34,0 0.504,0.434 0.586,1.418l0.551,0c-0.071,-1.218 -0.094,-2.859 -0.094,-5.765l-0.551,0c-0.246,1.945 -0.41,2.859 -1.113,3.797c-0.902,1.3 -2.66,1.828 -4.102,1.828c-3.093,0 -5.425,-2.953 -5.425,-8.309c0,-5.203 2.062,-8.449 5.191,-8.449c1.652,0 3.234,0.574 4.242,1.875c0.68,0.867 0.867,1.512 1.207,3.551l0.551,0c0,-2.789 0.023,-4.348 0.094,-5.52l-0.551,0c-0.082,0.985 -0.281,1.43 -0.609,1.43c-0.141,0 -0.293,-0.07 -0.469,-0.211c-1.055,-0.809 -2.309,-1.559 -4.418,-1.559Z" style="fill:#fff;fill-rule:nonzero;"/><path d="M221.667,70.458l-0.387,0l-5.648,14.543c-0.551,1.441 -1.266,1.945 -1.887,2.086l0,0.48c0.481,-0.046 0.985,-0.07 1.793,-0.07c0.844,0 1.852,0.024 2.766,0.07l0,-0.48c-1.371,-0.035 -2.086,-0.399 -2.086,-1.441c0,-0.493 0.152,-1.137 0.48,-1.969l0.985,-2.543l5.789,0l1.476,3.937c0.188,0.481 0.282,0.844 0.282,1.125c0,0.668 -0.539,0.844 -1.7,0.891l0,0.48c0.68,-0.046 1.829,-0.07 3.071,-0.07c0.914,0 1.922,0.024 2.578,0.07l0,-0.48c-0.504,-0.024 -1.184,-0.316 -1.664,-1.535l-5.848,-15.094ZM223.296,80.653l-5.437,0l2.754,-7.16l2.683,7.16Z" style="fill:#fff;fill-rule:nonzero;"/><path d="M238.071,70.575c-0.738,0.047 -1.945,0.071 -3.047,0.071c-1.242,0 -2.402,-0.024 -3.07,-0.071l0,0.481c1.629,0.07 1.945,0.316 1.945,2.062l0,11.906c0,1.747 -0.316,1.993 -1.945,2.063l0,0.48c2.355,-0.07 5.519,-0.07 6.961,-0.07c1.605,0 3.867,0 5.496,0.07c-0.117,-1.218 -0.164,-2.472 -0.164,-3.07c0,-0.773 0.023,-1.465 0.07,-1.969l-0.551,0c-0.339,3.34 -0.937,4.489 -3.937,4.489l-1.758,0c-1.629,0 -1.945,-0.246 -1.945,-1.993l0,-11.906c0,-1.746 0.316,-1.992 1.945,-2.062l0,-0.481Z" style="fill:#fff;fill-rule:nonzero;"/><path d="M270.349,70.306c-2.367,0 -4.512,1.324 -4.512,4.16c0,2.707 1.993,4.008 4.278,5.379c2.226,1.336 3.738,2.437 3.738,4.383c0,2.261 -1.558,3.199 -3.117,3.199c-3.07,0 -4.172,-2.543 -4.371,-5.449l-0.551,0c0,3.386 -0.023,4.769 -0.094,5.753l0.551,0c0.094,-0.691 0.223,-1.054 0.527,-1.054c0.2,0 0.434,0.094 0.821,0.34c0.691,0.433 1.582,0.89 3.281,0.89c2.789,0 5.098,-1.511 5.098,-4.558c0,-2.578 -1.828,-3.844 -4.325,-5.403c-2.156,-1.347 -4.031,-2.215 -4.031,-4.394c0,-1.653 1.219,-2.789 2.93,-2.789c2.66,0 3.762,2.332 3.937,4.617l0.551,0c0,-3.024 0.047,-4.055 0.117,-4.899l-0.55,0c-0.094,0.692 -0.223,1.055 -0.528,1.055c-0.222,0 -0.433,-0.094 -0.82,-0.34c-0.645,-0.433 -1.348,-0.89 -2.93,-0.89Z" style="fill:#fff;fill-rule:nonzero;"/><path d="M288.476,70.235c-4.465,0 -7.629,3.61 -7.629,8.977c0,5.496 3.047,8.695 7.605,8.695c4.465,0 7.629,-3.609 7.629,-8.976c0,-5.496 -3.047,-8.696 -7.605,-8.696ZM288.382,70.669c2.953,0 5.297,3.246 5.297,8.355c0,4.969 -2.016,8.45 -5.133,8.45c-2.953,0 -5.309,-3.246 -5.309,-8.356c0,-4.969 2.016,-8.449 5.145,-8.449Z" style="fill:#fff;fill-rule:nonzero;"/><path d="M308.665,70.235c-4.465,0 -7.629,3.61 -7.629,8.977c0,5.496 3.047,8.695 7.605,8.695c2.063,0 3.258,-0.726 4.442,-1.558c0.199,-0.129 0.363,-0.2 0.492,-0.2c0.34,0 0.504,0.434 0.586,1.418l0.551,0c-0.071,-1.218 -0.094,-2.859 -0.094,-5.765l-0.551,0c-0.246,1.945 -0.41,2.859 -1.113,3.797c-0.902,1.3 -2.66,1.828 -4.102,1.828c-3.093,0 -5.425,-2.953 -5.425,-8.309c0,-5.203 2.062,-8.449 5.191,-8.449c1.652,0 3.234,0.574 4.242,1.875c0.68,0.867 0.867,1.512 1.207,3.551l0.551,0c0,-2.789 0.023,-4.348 0.094,-5.52l-0.551,0c-0.082,0.985 -0.281,1.43 -0.609,1.43c-0.141,0 -0.293,-0.07 -0.469,-0.211c-1.055,-0.809 -2.309,-1.559 -4.418,-1.559Z" style="fill:#fff;fill-rule:nonzero;"/><path d="M325.795,70.575c-0.738,0.047 -1.945,0.071 -3.047,0.071c-1.242,0 -2.402,-0.024 -3.07,-0.071l0,0.481c1.629,0.07 1.945,0.316 1.945,2.062l0,11.906c0,1.747 -0.316,1.993 -1.945,2.063l0,0.48c0.668,-0.046 1.828,-0.07 3.07,-0.07c1.102,0 2.309,0.024 3.047,0.07l0,-0.48c-1.629,-0.07 -1.945,-0.316 -1.945,-2.063l0,-11.906c0,-1.746 0.316,-1.992 1.945,-2.062l0,-0.481Z" style="fill:#fff;fill-rule:nonzero;"/><path d="M342.504,84.497c0,-0.668 0.023,-1.301 0.07,-1.734l-0.551,0c-0.339,3.175 -0.937,4.254 -3.937,4.254l-1.758,0c-1.629,0 -1.945,-0.246 -1.945,-1.993l0,-5.765l1.594,0c2.085,0 2.109,1.64 2.296,3.176l0.551,0c-0.117,-1.829 -0.14,-2.625 -0.14,-3.411c0,-0.351 -0.012,-0.703 -0.012,-1.148c0,-0.551 0.012,-1.242 0.082,-2.262l-0.551,0c-0.187,1.149 -0.141,3.164 -2.226,3.164l-1.594,0l0,-5.66c0,-1.746 0.316,-1.992 1.945,-1.992l1.992,0c2.543,0 2.907,0.937 3.223,3.773l0.551,0c-0.047,-0.363 -0.071,-0.914 -0.071,-1.488c0,-0.551 0.047,-1.711 0.164,-2.836c-1.488,0.071 -3.55,0.071 -5.015,0.071c-1.442,0 -4.606,0 -6.961,-0.071l0,0.481c1.629,0.07 1.945,0.316 1.945,2.062l0,11.906c0,1.747 -0.316,1.993 -1.945,2.063l0,0.48c2.355,-0.07 5.519,-0.07 6.961,-0.07c1.605,0 3.867,0 5.496,0.07c-0.117,-1.218 -0.164,-2.472 -0.164,-3.07Z" style="fill:#fff;fill-rule:nonzero;"/><path d="M360.42,70.575c-1.993,0.071 -4.77,0.071 -6.739,0.071c-1.969,0 -4.781,0 -6.773,-0.071c0.129,1.219 0.176,2.473 0.176,3.071c0,0.773 -0.024,1.464 -0.071,1.968l0.551,0c0.328,-3.34 0.691,-4.488 3.691,-4.488l1.301,0l0,13.652c0,1.946 -0.41,2.239 -2.426,2.309l0,0.48c0.762,-0.046 2.11,-0.07 3.551,-0.07c1.301,0 2.684,0.024 3.528,0.07l0,-0.48c-2.016,-0.07 -2.426,-0.363 -2.426,-2.309l0,-13.652l1.301,0c3,0 3.351,1.148 3.691,4.488l0.551,0c-0.047,-0.504 -0.071,-1.195 -0.071,-1.968c0,-0.598 0.047,-1.852 0.165,-3.071Z" style="fill:#fff;fill-rule:nonzero;"/><path d="M375.839,70.646c-0.844,0 -1.852,-0.024 -2.766,-0.071l0,0.481c1.336,0.035 2.122,0.328 2.122,1.277c0,0.492 -0.211,1.16 -0.657,2.063l-3.058,6.093l-3.996,-7.652c-0.176,-0.34 -0.247,-0.609 -0.247,-0.832c0,-0.715 0.774,-0.926 1.688,-0.926l0,-0.504c-1.031,0.071 -2.309,0.071 -3.363,0.071c-0.821,0 -1.489,-0.024 -2.11,-0.071l0,0.504c0.34,0 0.739,0.164 1.395,1.348l4.863,8.976l0,3.621c0,1.747 -0.305,1.993 -1.945,2.063l0,0.48c0.68,-0.046 1.828,-0.07 3.082,-0.07c1.101,0 2.297,0.024 3.047,0.07l0,-0.48c-1.641,-0.07 -1.946,-0.316 -1.946,-2.063l0,-4.371l3.762,-7.465c0.727,-1.417 1.301,-1.992 1.922,-2.132l0,-0.481c-0.48,0.047 -0.984,0.071 -1.793,0.071Z" style="fill:#fff;fill-rule:nonzero;"/></svg>